<svg width="63" height="74" viewBox="0 0 63 74" fill="none" xmlns="http://www.w3.org/2000/svg">
<g clip-path="url(#clip0_3_123)">
<path fill-rule="evenodd" clip-rule="evenodd" d="M40.6611 62.3642C53.5902 58.3941 63 46.241 63 31.8661C63 14.2672 48.8967 0 31.5 0C14.1033 0 0 14.2672 0 31.8661C0 46.2421 9.40981 58.3941 22.3389 62.3642L29.7621 72.3767C29.9644 72.6497 30.2268 72.8712 30.5285 73.0238C30.8301 73.1764 31.1627 73.2558 31.5 73.2558C31.8373 73.2558 32.1699 73.1764 32.4715 73.0238C32.7732 72.8712 33.0356 72.6497 33.2379 72.3767L40.6611 62.3642Z" fill="#3C4043"/>
<path fill-rule="evenodd" clip-rule="evenodd" d="M31.5 60.4358C47.098 60.4358 59.7414 47.6454 59.7414 31.8661C59.7414 16.0869 47.098 3.29651 31.5 3.29651C15.9021 3.29651 3.25864 16.0869 3.25864 31.8661C3.25864 47.6454 15.9021 60.4358 31.5 60.4358Z" fill="#FF0000"/>
<rect x="7.85001" y="7.85001" width="48.3" height="48.3" rx="24.15" fill="#FF0000"/>
<g clip-path="url(#clip1_3_123)">
<path d="M33.8428 20.2236L45.4268 40.2868C45.6034 40.5928 45.6964 40.9398 45.6964 41.2931C45.6964 41.6463 45.6034 41.9934 45.4268 42.2993C45.2502 42.6053 44.9961 42.8593 44.6902 43.036C44.3843 43.2126 44.0372 43.3056 43.684 43.3056H20.516C20.1628 43.3056 19.8157 43.2126 19.5098 43.036C19.2039 42.8593 18.9498 42.6053 18.7732 42.2993C18.5966 41.9934 18.5036 41.6463 18.5036 41.2931C18.5036 40.9398 18.5966 40.5928 18.7732 40.2868L30.3572 20.2236C31.1313 18.8819 33.0673 18.8819 33.8428 20.2236ZM32.1 36.125C31.7442 36.125 31.4029 36.2664 31.1513 36.518C30.8997 36.7696 30.7583 37.1108 30.7583 37.4667C30.7583 37.8225 30.8997 38.1638 31.1513 38.4154C31.4029 38.667 31.7442 38.8083 32.1 38.8083C32.4558 38.8083 32.7971 38.667 33.0487 38.4154C33.3003 38.1638 33.4417 37.8225 33.4417 37.4667C33.4417 37.1108 33.3003 36.7696 33.0487 36.518C32.7971 36.2664 32.4558 36.125 32.1 36.125ZM32.1 26.7333C31.7714 26.7334 31.4542 26.854 31.2086 27.0724C30.9631 27.2908 30.8062 27.5917 30.7677 27.918L30.7583 28.075V33.4417C30.7587 33.7836 30.8897 34.1125 31.1244 34.3612C31.3592 34.6099 31.68 34.7595 32.0214 34.7795C32.3627 34.7996 32.6989 34.6885 32.9611 34.469C33.2234 34.2495 33.3919 33.9382 33.4323 33.5986L33.4417 33.4417V28.075C33.4417 27.7192 33.3003 27.3779 33.0487 27.1263C32.7971 26.8747 32.4558 26.7333 32.1 26.7333Z" fill="white"/>
</g>
</g>
<defs>
<clipPath id="clip0_3_123">
<rect width="63" height="73.2558" fill="white"/>
</clipPath>
<clipPath id="clip1_3_123">
<rect width="32.2" height="32.2" fill="white" transform="translate(16 16)"/>
</clipPath>
</defs>
</svg>
