<svg width="14" height="13" viewBox="0 0 14 13" fill="none" xmlns="http://www.w3.org/2000/svg">
<path fill-rule="evenodd" clip-rule="evenodd" d="M12.7354 0.421701C12.3449 0.0311766 11.7117 0.0311766 11.3212 0.421701L7 4.74291L2.67879 0.421701C2.28827 0.0311763 1.6551 0.0311763 1.26458 0.421701C0.874055 0.812224 0.874054 1.44539 1.26458 1.83591L5.58579 6.15712L1.42171 10.3212C1.03119 10.7117 1.03119 11.3449 1.42171 11.7354C1.81224 12.1259 2.4454 12.1259 2.83593 11.7354L7 7.57134L11.1641 11.7354C11.5546 12.1259 12.1878 12.1259 12.5783 11.7354C12.9688 11.3449 12.9688 10.7117 12.5783 10.3212L8.41421 6.15712L12.7354 1.83591C13.1259 1.44539 13.1259 0.812225 12.7354 0.421701Z" fill="#6C6C6C"/>
</svg>
