<svg width="30" height="30" viewBox="0 0 30 30" fill="none" xmlns="http://www.w3.org/2000/svg">
<rect width="30" height="30" rx="15" fill="#FF0000"/>
<g clip-path="url(#clip0_19_305)">
<path d="M16.0825 7.12335L23.2775 19.585C23.3872 19.775 23.445 19.9906 23.445 20.21C23.445 20.4294 23.3872 20.645 23.2775 20.835C23.1678 21.025 23.01 21.1828 22.82 21.2925C22.63 21.4023 22.4144 21.46 22.195 21.46H7.80501C7.58559 21.46 7.37004 21.4023 7.18002 21.2925C6.99 21.1828 6.83221 21.025 6.7225 20.835C6.61279 20.645 6.55504 20.4294 6.55504 20.21C6.55504 19.9906 6.6128 19.775 6.72251 19.585L13.9175 7.12335C14.3983 6.29002 15.6008 6.29002 16.0825 7.12335ZM15 17C14.779 17 14.567 17.0878 14.4108 17.2441C14.2545 17.4004 14.1667 17.6123 14.1667 17.8334C14.1667 18.0544 14.2545 18.2663 14.4108 18.4226C14.567 18.5789 14.779 18.6667 15 18.6667C15.221 18.6667 15.433 18.5789 15.5893 18.4226C15.7455 18.2663 15.8333 18.0544 15.8333 17.8334C15.8333 17.6123 15.7455 17.4004 15.5893 17.2441C15.433 17.0878 15.221 17 15 17ZM15 11.1667C14.7959 11.1667 14.5989 11.2416 14.4464 11.3773C14.2938 11.5129 14.1964 11.6998 14.1725 11.9025L14.1667 12V15.3334C14.1669 15.5458 14.2482 15.75 14.394 15.9045C14.5399 16.0589 14.7391 16.1519 14.9512 16.1643C15.1632 16.1768 15.372 16.1078 15.5349 15.9715C15.6977 15.8351 15.8024 15.6418 15.8275 15.4309L15.8333 15.3334V12C15.8333 11.779 15.7455 11.567 15.5893 11.4108C15.433 11.2545 15.221 11.1667 15 11.1667Z" fill="white"/>
</g>
<defs>
<clipPath id="clip0_19_305">
<rect width="20" height="20" fill="white" transform="translate(5 4.5)"/>
</clipPath>
</defs>
</svg>
