<svg width="29" height="28" viewBox="0 0 29 28" fill="none" xmlns="http://www.w3.org/2000/svg">
<path d="M3.375 13.9261C3.375 14.3987 3.74913 14.6843 4.2119 14.6843C4.49744 14.6843 4.72387 14.5465 4.9208 14.3495L14.5304 5.59656C14.6387 5.48826 14.7568 5.44886 14.8848 5.44886C15.003 5.44886 15.1113 5.48826 15.2294 5.59656L24.8292 14.3495C25.0359 14.5465 25.2623 14.6843 25.538 14.6843C26.0007 14.6843 26.375 14.3987 26.375 13.9261C26.375 13.6308 26.2667 13.4437 26.0796 13.2764L22.6728 10.1749V4.356C22.6728 3.92276 22.3972 3.64709 21.9641 3.64709H20.6742C20.2508 3.64709 19.9554 3.92276 19.9554 4.356V7.70357L16.0565 4.1394C15.7119 3.81446 15.2885 3.65692 14.875 3.65692C14.4614 3.65692 14.0479 3.81446 13.6935 4.1394L3.67037 13.2764C3.49317 13.4437 3.375 13.6308 3.375 13.9261ZM6.1909 22.1868C6.1909 23.5554 7.01798 24.3529 8.40625 24.3529H12.3938V17.3525C12.3938 16.8996 12.699 16.6042 13.152 16.6042H16.6275C17.0804 16.6042 17.3758 16.8996 17.3758 17.3525V24.3529H21.3535C22.7418 24.3529 23.5591 23.5554 23.5591 22.1868V14.9796L15.1999 7.44756C15.0916 7.34909 14.9734 7.2999 14.8553 7.2999C14.747 7.2999 14.6387 7.34909 14.5205 7.45744L6.1909 15.0289V22.1868Z" fill="black"/>
</svg>
