<svg width="27" height="26" viewBox="0 0 27 26" fill="none" xmlns="http://www.w3.org/2000/svg">
<path d="M23.8163 21.3987L19.0383 16.6207C20.1886 15.0893 20.8096 13.2253 20.8075 11.31C20.8075 6.41773 16.8273 2.4375 11.935 2.4375C7.04273 2.4375 3.0625 6.41773 3.0625 11.31C3.0625 16.2023 7.04273 20.1825 11.935 20.1825C13.8503 20.1846 15.7143 19.5636 17.2457 18.4133L22.0237 23.1913C22.2656 23.4075 22.581 23.5229 22.9053 23.5138C23.2296 23.5048 23.5381 23.3719 23.7675 23.1425C23.9969 22.9131 24.1298 22.6046 24.1388 22.2803C24.1479 21.956 24.0325 21.6406 23.8163 21.3987ZM5.5975 11.31C5.5975 10.0566 5.96919 8.83127 6.66556 7.78907C7.36193 6.74688 8.35172 5.93458 9.50974 5.45491C10.6678 4.97524 11.942 4.84974 13.1714 5.09427C14.4007 5.33881 15.53 5.9424 16.4163 6.82871C17.3026 7.71503 17.9062 8.84426 18.1507 10.0736C18.3953 11.303 18.2698 12.5772 17.7901 13.7353C17.3104 14.8933 16.4981 15.8831 15.4559 16.5794C14.4137 17.2758 13.1884 17.6475 11.935 17.6475C10.2548 17.6455 8.64401 16.9771 7.45594 15.7891C6.26786 14.601 5.59952 12.9902 5.5975 11.31Z" fill="black"/>
</svg>
